HIERARCHY
ROOT Hips
{
	OFFSET 0.000000 0.000000 0.000000 
	CHANNELS 6 Xposition Yposition Zposition Zrotation Yrotation Xrotation
	JOINT LeftUpLeg
	{
		OFFSET 1.363060 -1.794630 0.839290 
		CHANNELS 3 Zrotation Yrotation Xrotation
		JOINT LeftLeg
		{
			OFFSET 2.448110 -6.726130 0.000000 
			CHANNELS 3 Zrotation Yrotation Xrotation
			JOINT LeftFoot
			{
				OFFSET 2.562200 -7.039590 0.000000 
				CHANNELS 3 Zrotation Yrotation Xrotation
				JOINT LeftToeBase
				{
					OFFSET 0.157640 -0.433110 2.322550 
					CHANNELS 3 Zrotation Yrotation Xrotation
					End Site
					{
						OFFSET 0.000000 0.000000 0.000000 
					}
				}
			}
		}
	}
	JOINT RightUpLeg
	{
		OFFSET -1.305520 -1.794630 0.839290 
		CHANNELS 3 Zrotation Yrotation Xrotation
		JOINT RightLeg
		{
			OFFSET -2.542530 -6.985550 0.000000 
			CHANNELS 3 Zrotation Yrotation Xrotation
			JOINT RightFoot
			{
				OFFSET -2.568260 -7.056230 0.000000 
				CHANNELS 3 Zrotation Yrotation Xrotation
				JOINT RightToeBase
				{
					OFFSET -0.164730 -0.452590 2.363150 
					CHANNELS 3 Zrotation Yrotation Xrotation
					End Site
					{
						OFFSET 0.000000 0.000000 0.000000 
					}
				}
			}
		}
	}
	JOINT Spine
	{
		OFFSET 0.028270 2.035590 -0.193380 
		CHANNELS 3 Zrotation Yrotation Xrotation
		JOINT Spine1
		{
			OFFSET 0.056720 2.048850 -0.042750 
			CHANNELS 3 Zrotation Yrotation Xrotation
			JOINT Neck1
			{
				OFFSET -0.054170 1.746240 0.172020 
				CHANNELS 3 Zrotation Yrotation Xrotation
				JOINT Head
				{
					OFFSET 0.104070 1.761360 -0.123970 
					CHANNELS 3 Zrotation Yrotation Xrotation
					End Site
					{
						OFFSET 0.000000 0.000000 0.000000 
					}
				}
			}
			JOINT LeftArm
			{
				OFFSET 3.362410 1.200890 -0.311210 
				CHANNELS 3 Zrotation Yrotation Xrotation
				JOINT LeftForeArm
				{
					OFFSET 4.983000 -0.000000 -0.000000 
					CHANNELS 3 Zrotation Yrotation Xrotation
					JOINT LeftHand
					{
						OFFSET 3.483560 -0.000000 -0.000000 
						CHANNELS 3 Zrotation Yrotation Xrotation
						JOINT LeftHandIndex1
						{
							OFFSET 0.715260 -0.000000 -0.000000 
							CHANNELS 3 Zrotation Yrotation Xrotation
							End Site
							{
								OFFSET 0.000000 0.000000 0.000000 
							}
						}
					}
				}
			}
			JOINT RightArm
			{
				OFFSET -3.136600 1.374050 -0.404650 
				CHANNELS 3 Zrotation Yrotation Xrotation
				JOINT RightForeArm
				{
					OFFSET -5.241900 -0.000000 -0.000000 
					CHANNELS 3 Zrotation Yrotation Xrotation
					JOINT RightHand
					{
						OFFSET -3.444170 -0.000000 -0.000000 
						CHANNELS 3 Zrotation Yrotation Xrotation
						JOINT RightHandIndex1
						{
							OFFSET -0.622530 -0.000000 -0.000000 
							CHANNELS 3 Zrotation Yrotation Xrotation
							End Site
							{
								OFFSET 0.000000 0.000000 0.000000 
							}
						}
					}
				}
			}
		}
	}
}
MOTION
Frames: 15
Frame Time: 0.041667
0.843275 18.444843 10.073338 -10.728840 -9.606864 14.797383 -24.112711 -45.860684 26.036736 -4.498509 -2.774032 -2.941531 -8.731320 43.210001 -48.451250 1.817100 8.474200 24.163900 20.602519 27.442765 -0.782103 3.504025 -0.795597 2.896038 6.243263 -20.443530 1.292799 -0.077100 1.791100 -4.928800 33.318983 4.365485 -14.578068 -8.693610 -3.808842 -8.602284 -16.789923 13.178556 4.384331 -4.625300 6.039100 4.772600 -64.157088 -34.263571 -12.481679 112.805871 -54.314576 -86.648677 1.735824 -1.815080 -103.653615 -7.125000 0.000000 0.000000 -84.114512 82.245748 -61.080070 -102.406243 61.580026 -73.379250 -1.334660 1.059902 28.170226 7.125000 0.000000 0.000000 
0.847069 18.443472 10.072390 -10.658879 -9.634300 14.966068 -24.224465 -46.011138 26.149293 -4.503878 -2.753914 -2.941391 -8.575217 43.153983 -48.739232 1.855800 8.559100 24.425600 20.582214 27.507992 -0.840812 3.502992 -0.816853 2.902925 6.239730 -20.461300 1.306820 -0.078700 1.809600 -4.979600 32.434112 4.901227 -15.926938 -8.747952 -3.500353 -8.718118 -16.949071 12.998677 4.485949 -4.619600 5.963500 4.741300 -64.282876 -34.102408 -12.130024 112.905534 -54.275869 -86.710008 1.747748 -1.806867 -103.741190 -7.125000 0.000000 0.000000 -79.185009 84.926118 -56.827878 -102.563666 61.682782 -73.477342 -1.187819 0.985681 27.269667 7.125000 0.000000 0.000000 
0.850548 18.441891 10.070914 -10.633453 -9.604711 15.100195 -24.199708 -46.083001 26.154206 -4.504820 -2.739727 -2.950356 -8.484437 43.081095 -48.852453 1.883100 8.618100 24.607900 20.621652 27.533933 -0.872746 3.504240 -0.820953 2.878744 6.246040 -20.505907 1.319936 -0.084000 1.870000 -5.146500 31.620854 5.297768 -16.975789 -8.839432 -3.265308 -8.794618 -17.063359 12.776690 4.388542 -4.637500 5.871900 4.654700 -64.330906 -33.966635 -11.791707 112.974282 -54.262565 -86.747069 1.765677 -1.799268 -103.897802 -7.125000 0.000000 0.000000 -74.958257 86.807017 -53.329048 -102.845366 61.841479 -73.696614 -1.089840 0.936664 26.112811 7.125000 0.000000 0.000000 
0.853816 18.442207 10.068700 -10.649613 -9.528503 15.228302 -24.065814 -46.085339 26.050193 -4.501782 -2.733078 -2.970936 -8.518698 43.103056 -48.801220 1.874200 8.598900 24.548600 20.687904 27.614005 -0.896399 3.505489 -0.837051 2.883898 6.259129 -20.555764 1.238065 -0.078600 1.808400 -4.976400 31.157466 5.597480 -17.900171 -8.931189 -3.119551 -8.908844 -17.105355 12.633633 4.183252 -4.632400 5.822500 4.523100 -64.379574 -33.726270 -11.697936 112.998884 -54.254642 -86.770999 1.769421 -1.790450 -103.926581 -7.125000 0.000000 0.000000 -70.677179 88.621017 -49.670615 -103.046086 61.976739 -73.858888 -1.021013 0.902679 25.410780 7.125000 0.000000 0.000000 
0.856662 18.444105 10.066908 -10.638891 -9.468596 15.309282 -23.963603 -46.040599 25.927048 -4.496785 -2.728012 -2.984937 -8.617746 43.172527 -48.657514 1.841300 8.527400 24.327700 20.711834 27.729222 -0.881472 3.507771 -0.847920 2.889638 6.279674 -20.602843 1.085644 -0.057500 1.547000 -4.255200 30.789786 5.803198 -18.543194 -9.048081 -3.003292 -9.001710 -16.918521 12.453991 4.048783 -4.556500 5.752400 4.394900 -64.616202 -33.678312 -11.505017 113.106280 -54.223305 -86.858251 1.764076 -1.788909 -103.791266 -7.125000 0.000000 0.000000 113.295090 89.923134 133.670089 -103.000135 62.133317 -73.833685 -0.978456 0.883620 25.294288 7.125000 0.000000 0.000000 
0.858559 18.445159 10.065960 -10.540481 -9.426254 15.349754 -24.007754 -46.012242 25.855975 -4.492350 -2.716539 -2.967909 -8.675759 43.194323 -48.538254 1.825800 8.493300 24.222800 20.619608 27.754923 -0.891893 3.510498 -0.843579 2.855748 6.310310 -20.684944 1.049156 -0.054200 1.501700 -4.130300 30.444430 5.914610 -18.970473 -9.132656 -2.907634 -9.045568 -16.708277 12.233077 3.813697 -4.469900 5.662600 4.244000 -64.939569 -33.714585 -11.355839 113.352748 -54.168080 -87.036611 1.764487 -1.789043 -103.693310 -7.125000 0.000000 0.000000 116.734594 88.690546 136.413141 -102.822931 62.276541 -73.724210 -0.951070 0.881940 25.198638 7.125000 0.000000 0.000000 
0.859192 18.444526 10.065643 -10.453353 -9.401628 15.365804 -24.125292 -46.075647 25.915019 -4.492951 -2.707492 -2.956890 -8.645174 43.192221 -48.601647 1.833900 8.511200 24.277800 20.540825 27.709611 -0.927531 3.510659 -0.843616 2.836775 6.327001 -20.743473 1.118523 -0.072400 1.735700 -4.775700 30.097996 5.965786 -19.264124 -9.187000 -2.835909 -9.063477 -16.644776 12.095717 3.735901 -4.422600 5.603900 4.162800 -65.153933 -33.640558 -11.332520 113.714064 -54.103890 -87.295676 1.765294 -1.782971 -103.725741 -7.125000 0.000000 0.000000 119.422002 87.499827 138.350528 -102.612468 62.377526 -73.612474 -0.933288 0.896492 24.767423 7.125000 0.000000 0.000000 
0.859192 18.443683 10.065327 -10.407088 -9.423010 15.346021 -24.313048 -46.223760 26.132434 -4.500731 -2.705594 -2.956970 -8.510259 43.173006 -48.894441 1.861200 8.570800 24.461700 20.505074 27.704126 -0.933492 3.508713 -0.854159 2.858615 6.322047 -20.730710 1.147989 -0.084500 1.875200 -5.161000 29.781447 5.996469 -19.382984 -9.237243 -2.765419 -9.066721 -16.992124 12.012040 3.655748 -4.494600 5.564700 4.119500 -65.350623 -33.606322 -11.268084 114.012170 -54.050126 -87.506332 1.760767 -1.780793 -103.752524 -7.125000 0.000000 0.000000 121.452115 86.411948 139.699538 -102.541526 62.447474 -73.615617 -0.912352 0.908061 23.675243 7.125000 0.000000 0.000000 
0.859508 18.443051 10.063535 -10.387225 -9.448224 15.315558 -24.413328 -46.289793 26.252317 -4.505006 -2.699940 -2.941857 -8.430067 43.146029 -49.045485 1.879900 8.611300 24.586900 20.489751 27.679826 -0.945801 3.506157 -0.865044 2.891340 6.302424 -20.673597 1.169278 -0.083500 1.863500 -5.128700 29.551515 5.976172 -19.340583 -9.289742 -2.715379 -9.076206 -17.413230 11.958815 3.562170 -4.583900 5.540300 4.081500 -65.476362 -33.709889 -11.215939 113.984922 -54.047469 -87.477725 1.756081 -1.785899 -103.733245 -7.125000 0.000000 0.000000 123.220139 85.312503 140.832404 -102.529757 62.506743 -73.677593 -0.888198 0.922117 21.675843 7.125000 0.000000 0.000000 
0.859824 18.441891 10.059740 -10.450800 -9.452905 15.278931 -24.297841 -46.215634 26.205001 -4.502393 -2.697287 -2.937976 -8.473851 43.133038 -48.925957 1.878300 8.607900 24.576300 20.580406 27.581422 -0.972090 3.502403 -0.875126 2.932409 6.258932 -20.565162 1.238454 -0.081000 1.836000 -5.052700 29.371709 5.927817 -19.194347 -9.391869 -2.688738 -9.107876 -17.486989 11.953686 3.775556 -4.570200 5.531000 4.108600 -65.564286 -33.885639 -11.128255 113.791549 -54.074859 -87.327661 1.758816 -1.789132 -103.714443 -7.125000 0.000000 0.000000 124.406537 84.199294 141.427364 -102.315516 62.550951 -73.605201 -0.879027 0.947859 19.148546 7.125000 0.000000 0.000000 
0.858559 18.440415 10.055208 -10.509346 -9.501212 15.245965 -24.151035 -46.117072 26.140562 -4.501324 -2.697466 -2.946234 -8.447897 43.037576 -48.859744 1.904100 8.663400 24.748000 20.699837 27.558110 -0.960612 3.498592 -0.887667 2.981975 6.227656 -20.485478 1.272608 -0.080500 1.830500 -5.037600 28.995066 5.937604 -19.184517 -9.457750 -2.629023 -9.065345 -17.629824 11.893785 4.082495 -4.587000 5.490100 4.156600 -65.750262 -34.027921 -10.844638 113.707250 -54.092703 -87.256472 1.761848 -1.788048 -103.734209 -7.125000 0.000000 0.000000 124.410805 83.306600 140.943294 -102.011462 62.550785 -73.464457 -0.887180 0.973252 16.834164 7.125000 0.000000 0.000000 
0.853499 18.438729 10.050148 -10.459698 -9.557311 15.243527 -24.026776 -45.953119 25.956473 -4.496160 -2.700659 -2.971858 -8.534144 43.055531 -48.673993 1.893700 8.641200 24.679100 20.711461 27.608764 -0.947756 3.496347 -0.899300 3.022126 6.228280 -20.477671 1.244042 -0.081400 1.839900 -5.063400 28.589254 5.926877 -19.317027 -9.378774 -2.580559 -8.953332 -18.011829 11.851903 4.228042 -4.675000 5.463200 4.169800 -65.991232 -34.056146 -10.607236 113.722002 -54.100806 -87.250441 1.763794 -1.787530 -103.787598 -7.125000 0.000000 0.000000 123.676543 82.610016 139.887123 -101.910750 62.496990 -73.452783 -0.897687 0.985097 15.342685 7.125000 0.000000 0.000000 
0.846753 18.437464 10.045932 -10.420735 -9.546756 15.240492 -23.831401 -45.714291 25.659107 -4.481551 -2.709287 -3.016340 -8.903304 43.332869 -48.165189 1.786300 8.406000 23.954200 20.708828 27.598898 -0.957513 3.495642 -0.905382 3.055266 6.219521 -20.434576 1.170549 -0.070100 1.708500 -4.700800 28.515861 5.844243 -19.269077 -9.272240 -2.591516 -8.843031 -18.345458 11.881527 4.341570 -4.746200 5.473900 4.175900 -66.283635 -34.086961 -10.484136 113.708787 -54.107102 -87.222619 1.769234 -1.788450 -103.793073 -7.125000 0.000000 0.000000 122.434305 82.031273 138.517629 -101.973695 62.389686 -73.537079 -0.907781 0.984945 15.032534 7.125000 0.000000 0.000000 
0.842221 18.436515 10.044140 -10.464141 -9.516495 15.210290 -23.603544 -45.521747 25.415921 -4.468077 -2.705616 -3.018419 -9.161633 43.451021 -47.701420 1.710600 8.235400 23.431300 20.761388 27.492618 -0.968388 3.496220 -0.893976 3.055854 6.186291 -20.332249 1.143464 -0.049200 1.431500 -3.936900 28.577053 5.734905 -18.971070 -9.216661 -2.620681 -8.754875 -18.570576 11.942884 4.872241 -4.781500 5.477200 4.301800 -66.624662 -34.123579 -10.275482 113.798753 -54.097125 -87.277930 1.769370 -1.785256 -103.839860 -7.125000 0.000000 0.000000 120.388440 81.675425 136.492681 -102.082998 62.228577 -73.642296 -0.924597 0.981948 15.815528 7.125000 0.000000 0.000000 
0.838848 18.435567 10.043507 -10.506396 -9.508042 15.179049 -23.558744 -45.551296 25.430977 -4.466240 -2.694804 -3.003528 -9.152705 43.415443 -47.676265 1.716500 8.248800 23.472400 20.811469 27.342389 -0.969875 3.497803 -0.863980 3.008248 6.154698 -20.251339 1.218391 -0.039800 1.287000 -3.538800 28.517545 5.599845 -18.634705 -9.145585 -2.652780 -8.655159 -18.636214 12.012168 5.751030 -4.770200 5.466300 4.522700 -66.906713 -34.105568 -10.015386 113.978384 -54.085605 -87.396023 1.767239 -1.780836 -104.036218 -7.125000 0.000000 0.000000 117.437865 81.654992 133.817293 -102.435331 61.996556 -73.925777 -0.945446 0.972145 16.980836 7.125000 0.000000 0.000000 
